<svg width="577" height="358" viewBox="0 0 577 358" fill="none" xmlns="http://www.w3.org/2000/svg">
<g clip-path="url(#clip0)">
<path d="M105.589 180.376C98.8856 184.624 68.7108 188.276 68.7108 188.276C68.7108 188.276 77.4248 167.155 84.1284 162.886C87.3579 160.887 91.5502 159.884 95.7983 160.094C100.047 160.304 104.009 161.711 106.829 164.009C109.648 166.308 111.099 169.314 110.865 172.377C110.632 175.44 108.735 178.313 105.583 180.376H105.589Z" fill="#463EE6"/>
<path d="M106.998 227.691C101.391 232.715 72.5077 239.965 72.5077 239.965C72.5077 239.965 76.1395 218.083 81.7465 213.063C84.4472 210.669 88.354 209.142 92.6127 208.817C96.8715 208.492 101.136 209.395 104.473 211.328C107.811 213.261 109.95 216.068 110.423 219.134C110.896 222.2 109.665 225.277 106.998 227.691Z" fill="#463EE6"/>
<path d="M105.589 180.376C98.8856 184.624 68.7108 188.276 68.7108 188.276C68.7108 188.276 77.4248 167.155 84.1284 162.886C87.3579 160.887 91.5502 159.884 95.7983 160.094C100.047 160.304 104.009 161.711 106.829 164.009C109.648 166.308 111.099 169.314 110.865 172.377C110.632 175.44 108.735 178.313 105.583 180.376H105.589Z" fill="#FC6681"/>
<path d="M106.998 227.691C101.391 232.715 72.5077 239.965 72.5077 239.965C72.5077 239.965 76.1395 218.083 81.7465 213.063C84.4472 210.669 88.354 209.142 92.6127 208.817C96.8715 208.492 101.136 209.395 104.473 211.328C107.811 213.261 109.95 216.068 110.423 219.134C110.896 222.2 109.665 225.277 106.998 227.691Z" fill="#FC6681"/>
<path opacity="0.1" d="M292.729 300.399C449.188 300.399 576.023 294.124 576.023 286.383C576.023 278.643 449.188 272.367 292.729 272.367C136.269 272.367 9.43411 278.643 9.43411 286.383C9.43411 294.124 136.269 300.399 292.729 300.399Z" fill="#CCF2F4"/>
<path d="M536.504 274.377C536.504 274.377 536.032 273.922 535.378 273.412L535.566 273.366C535.566 273.366 527.147 258.207 529.022 251.807C530.897 245.406 521.54 229.912 521.54 229.912C521.54 229.912 507.738 209.551 514.27 193.301C515.016 191.387 515.58 189.438 515.957 187.469C517.908 177.845 517.218 175.861 513.946 172.345L513.587 171.967C513.99 171.684 514.309 171.344 514.524 170.969C517.33 165.579 501.435 155.81 505.663 146.713C509.566 138.282 499.407 120.885 497.898 118.383L497.727 118.099L497.22 118.218C497.305 116.045 498.492 113.971 500.557 112.386L500.651 112.318C502.054 111.388 503.758 110.704 505.073 109.706L505.15 109.642C505.279 109.553 505.415 109.464 505.539 109.371C506.842 108.385 507.732 106.924 507.024 105.659C506.382 104.503 504.578 103.798 504.153 102.592C504.051 102.05 503.988 101.504 503.965 100.957C503.623 99.2579 501.329 98.1918 499.248 97.3509C496.66 96.2976 493.942 95.2273 490.952 95.2018C486.908 95.2018 483.288 97.1555 479.273 97.3976C477.905 97.4826 476.484 97.3636 475.187 97.6907C474.198 97.9871 473.29 98.407 472.504 98.9309C472.042 99.1927 471.605 99.4765 471.195 99.7803C470.288 100.392 469.515 101.114 469.551 101.98C469.616 102.613 470.028 103.201 470.694 103.616C469.4 104.884 468.507 106.341 468.078 107.884C467.649 109.427 467.694 111.019 468.211 112.549C468.727 114.078 469.702 115.507 471.067 116.736C472.432 117.965 474.155 118.964 476.113 119.662C476.16 119.895 476.207 120.133 476.254 120.384C476.844 123.573 477.192 128.084 475.617 131.618C468.902 134.111 458.437 138.176 456.562 139.981C456.417 140.133 456.319 140.307 456.276 140.49C456.233 140.672 456.247 140.86 456.314 141.038C456.261 141.204 456.249 141.375 456.279 141.544C454.811 141.786 452.859 141.544 450.483 139.981C444.871 136.277 427.106 125.158 427.106 125.158C427.106 125.158 419.159 111.01 413.546 113.69C407.933 116.37 420.09 129.524 420.09 129.524L446.704 150.081C446.704 150.081 447.642 154.46 457.458 152.102C460.701 151.325 463.631 150.582 466.107 149.94L466.697 150.301C464.486 159.62 463.342 172.039 471.496 175.683C472.135 176.293 472.596 176.989 472.852 177.73C472.811 177.841 472.77 177.955 472.734 178.066C472.109 179.926 471.715 181.822 471.555 183.732C470.018 186.263 469.31 189.016 469.486 191.776L466.361 223.847C466.361 223.847 465.895 230.919 469.167 236.308C472.44 241.698 482.728 268.647 475.712 270.669L476.378 270.732C474.367 272.223 470.983 274.483 468.407 274.929C464.492 275.6 465.589 279.924 474.267 280.646C482.946 281.368 483.989 281.308 490.092 277.643C495.469 274.415 496.324 272.971 496.447 272.661L496.754 272.69C496.754 272.69 493.482 263.933 496.754 260.229C500.026 256.525 489.278 233.96 489.278 233.96C489.188 231.076 489.335 228.192 489.72 225.321C491.371 228.434 492.55 230.592 492.55 230.592C492.55 230.592 495.357 240.36 498.629 242.059C501.901 243.758 519.205 266.986 516.399 277.091L516.075 278.267L516.865 278.101H516.935C515.856 280.025 513.893 283.066 511.723 284.184C508.451 285.882 511.723 289.573 520.143 287.887C528.562 286.201 529.493 285.865 533.237 280.815C536.981 275.765 536.504 274.377 536.504 274.377Z" fill="url(#paint0_linear)"/>
<path d="M474.539 184.436L472.487 182.614C470.388 185.423 469.388 188.589 469.592 191.776L466.538 223.133C466.538 223.133 466.078 230.048 469.279 235.319C472.481 240.589 482.539 266.935 475.682 268.91L496.229 270.911C496.229 270.911 493.028 262.348 496.229 258.725C499.431 255.102 488.913 233.038 488.913 233.038C488.913 233.038 487.999 214.596 496.683 210.311C505.368 206.025 474.539 184.436 474.539 184.436Z" fill="#555388"/>
<path d="M478.005 267.674C478.005 267.674 472.363 272.423 468.542 273.081C464.722 273.739 465.789 277.961 474.273 278.671C482.757 279.38 483.777 279.32 489.75 275.736C495.722 272.151 495.988 270.805 495.988 270.805C495.988 270.805 494.808 267.619 493.382 267.551C491.955 267.483 478.005 267.674 478.005 267.674Z" fill="#603556"/>
<path opacity="0.1" d="M475.912 185.426L472.493 182.614C470.394 185.423 469.394 188.589 469.598 191.776L466.544 223.133C466.544 223.133 466.084 230.048 469.285 235.319C472.487 240.589 482.545 266.935 475.688 268.91L496.229 270.911C496.229 270.911 493.028 262.348 496.229 258.725C499.431 255.102 488.913 233.038 488.913 233.038C488.913 233.038 487.999 214.596 496.683 210.311C505.368 206.025 475.912 185.426 475.912 185.426Z" fill="black"/>
<path d="M496.265 228.404C496.265 228.404 490.552 147.617 467.098 119.025C467.098 119.025 449.9 96.3952 435.526 89.795V87.1872C412.072 75.4902 383.212 87.1872 383.212 87.1872V88.3424L377.198 91.9526L350.119 91.8846C348.893 90.8205 347.357 89.9643 345.619 89.3769C343.882 88.7896 341.986 88.4857 340.066 88.4868H216.502C214.695 88.4854 212.909 88.7542 211.254 89.2762C209.6 89.7982 208.114 90.5621 206.891 91.5194H178.768C178.768 91.5194 177.112 90.1305 172.754 88.7332V87.1872C149.301 75.4902 120.441 87.1872 120.441 87.1872V90.3259C119.755 90.6521 119.146 91.0549 118.637 91.5194C118.637 91.5194 94.8824 102.987 89.47 117.292C89.47 117.292 60.3033 180.321 59.702 229.704C59.1006 279.087 85.5611 286.018 99.3868 287.318C113.213 288.618 137.869 286.893 161.924 243.146L172.147 217.591C172.147 217.591 173.951 202.428 195.601 211.959C217.25 221.49 236.488 206.76 236.488 206.76H317.674C317.674 206.76 344.706 218.873 369.386 209.326C369.386 209.326 379.008 200.228 388.029 230.987C388.029 230.987 415.692 294.232 458.384 287.734C501.076 281.236 496.265 228.404 496.265 228.404Z" fill="url(#paint1_linear)"/>
<path d="M123.518 93.7703V89.0983C123.518 89.0983 151.818 77.6307 174.812 89.0983V93.3456L123.518 93.7703Z" fill="#535461"/>
<path d="M381.166 93.7703V89.0983C381.166 89.0983 409.466 77.6307 432.46 89.0983V93.3456L381.166 93.7703Z" fill="#535461"/>
<path opacity="0.1" d="M123.518 93.7703V89.0983C123.518 89.0983 151.818 77.6307 174.812 89.0983V93.3456L123.518 93.7703Z" fill="black"/>
<path opacity="0.1" d="M381.166 93.7703V89.0983C381.166 89.0983 409.466 77.6307 432.46 89.0983V93.3456L381.166 93.7703Z" fill="black"/>
<path d="M208.418 93.3456H180.708C180.708 93.3456 173.633 87.3995 150.05 87.8242C126.466 88.2489 121.75 93.3456 121.75 93.3456C121.75 93.3456 98.4611 104.601 93.1549 118.617C93.1549 118.617 64.5601 180.414 63.9705 228.833C63.3809 277.252 89.3226 284.048 102.883 285.322C116.443 286.596 140.616 284.897 164.2 242L174.223 216.941C174.223 216.941 175.991 202.075 197.216 211.419C218.441 220.763 237.308 206.323 237.308 206.323H316.902C316.902 206.323 343.433 218.215 367.606 208.871C367.606 208.871 377.039 199.952 385.883 230.107C385.883 230.107 413.004 292.117 454.864 285.746C496.725 279.376 492.008 227.559 492.008 227.559C492.008 227.559 486.407 148.348 463.413 120.316C463.413 120.316 441.304 91.222 426.564 89.9478C426.564 89.9478 394.727 85.7006 382.345 89.5231L375.27 93.7704L208.418 93.3456Z" fill="#535461"/>
<path d="M144.154 171.92C172.483 171.92 195.448 155.376 195.448 134.969C195.448 114.561 172.483 98.0176 144.154 98.0176C115.825 98.0176 92.8601 114.561 92.8601 134.969C92.8601 155.376 115.825 171.92 144.154 171.92Z" fill="#E2E2EC"/>
<path d="M411.825 171.92C440.153 171.92 463.118 155.376 463.118 134.969C463.118 114.561 440.153 98.0176 411.825 98.0176C383.496 98.0176 360.531 114.561 360.531 134.969C360.531 155.376 383.496 171.92 411.825 171.92Z" fill="#E2E2EC"/>
<path d="M153.092 126.729L146.253 131.087C145.674 131.454 144.928 131.657 144.157 131.657C143.385 131.657 142.64 131.454 142.061 131.087L135.21 126.729C134.875 126.516 134.606 126.255 134.421 125.962C134.236 125.67 134.139 125.352 134.137 125.03V113.04C134.138 112.435 134.473 111.855 135.068 111.427C135.663 111 136.469 110.759 137.309 110.759H151.017C151.433 110.759 151.846 110.818 152.231 110.932C152.617 111.047 152.966 111.215 153.261 111.427C153.556 111.64 153.79 111.892 153.949 112.169C154.108 112.447 154.189 112.744 154.188 113.044V125.022C154.185 125.346 154.085 125.666 153.896 125.961C153.707 126.255 153.433 126.517 153.092 126.729Z" fill="#535461"/>
<path d="M153.092 143.204L146.253 138.851C145.674 138.484 144.928 138.281 144.157 138.281C143.385 138.281 142.64 138.484 142.061 138.851L135.21 143.208C134.875 143.421 134.606 143.682 134.421 143.975C134.236 144.268 134.139 144.586 134.137 144.907V156.885C134.136 157.185 134.218 157.482 134.377 157.76C134.536 158.037 134.769 158.289 135.064 158.502C135.359 158.714 135.709 158.882 136.094 158.997C136.479 159.112 136.892 159.17 137.309 159.17H151.017C151.433 159.17 151.845 159.112 152.23 158.997C152.615 158.883 152.964 158.715 153.259 158.503C153.554 158.291 153.787 158.04 153.947 157.763C154.106 157.486 154.188 157.189 154.188 156.889V144.912C154.185 144.587 154.085 144.267 153.896 143.973C153.707 143.678 153.433 143.416 153.092 143.204Z" fill="#535461"/>
<path d="M132.722 141.416L138.771 136.481C139.281 136.064 139.562 135.527 139.562 134.971C139.562 134.415 139.281 133.878 138.771 133.461L132.722 128.526C132.426 128.285 132.064 128.091 131.657 127.958C131.251 127.825 130.81 127.755 130.363 127.753H113.737C112.897 127.754 112.092 127.995 111.498 128.423C110.905 128.852 110.571 129.432 110.571 130.038V139.913C110.57 140.213 110.652 140.51 110.811 140.788C110.97 141.065 111.204 141.317 111.498 141.53C111.793 141.742 112.143 141.91 112.528 142.025C112.914 142.139 113.326 142.198 113.743 142.198H130.369C130.816 142.194 131.256 142.123 131.662 141.988C132.067 141.853 132.428 141.658 132.722 141.416Z" fill="#535461"/>
<path d="M155.592 141.416L149.554 136.477C149.043 136.06 148.761 135.523 148.761 134.967C148.761 134.41 149.043 133.874 149.554 133.457L155.604 128.521C155.899 128.28 156.261 128.086 156.668 127.953C157.074 127.82 157.515 127.75 157.962 127.748H174.588C175.005 127.748 175.418 127.807 175.803 127.921C176.188 128.036 176.538 128.204 176.833 128.416C177.127 128.629 177.361 128.881 177.52 129.158C177.679 129.436 177.761 129.733 177.76 130.033V139.908C177.761 140.208 177.68 140.505 177.521 140.782C177.362 141.06 177.129 141.312 176.835 141.524C176.541 141.736 176.191 141.904 175.807 142.019C175.422 142.134 175.01 142.193 174.594 142.193H157.968C157.518 142.193 157.073 142.123 156.663 141.989C156.254 141.855 155.888 141.66 155.592 141.416Z" fill="#535461"/>
<path d="M135.31 107.786H152.998L144.154 102.265L135.31 107.786Z" stroke="#535461" stroke-width="1.99942" stroke-miterlimit="10"/>
<path d="M135.31 162.151H152.998L144.154 167.673L135.31 162.151Z" stroke="#535461" stroke-width="1.99942" stroke-miterlimit="10"/>
<path d="M106.421 128.598V141.34L98.7559 134.969L106.421 128.598Z" stroke="#535461" stroke-width="1.99942" stroke-miterlimit="10"/>
<path d="M181.887 128.598V141.34L189.552 134.969L181.887 128.598Z" stroke="#535461" stroke-width="1.99942" stroke-miterlimit="10"/>
<path d="M213.725 202.076C234.239 202.076 250.868 190.096 250.868 175.318C250.868 160.54 234.239 148.56 213.725 148.56C193.211 148.56 176.581 160.54 176.581 175.318C176.581 190.096 193.211 202.076 213.725 202.076Z" fill="#E2E2EC"/>
<path d="M212.545 188.909C226.221 188.909 237.308 180.922 237.308 171.071C237.308 161.219 226.221 153.232 212.545 153.232C198.869 153.232 187.783 161.219 187.783 171.071C187.783 180.922 198.869 188.909 212.545 188.909Z" fill="#535461"/>
<path d="M342.254 202.076C362.768 202.076 379.397 190.096 379.397 175.318C379.397 160.54 362.768 148.56 342.254 148.56C321.74 148.56 305.11 160.54 305.11 175.318C305.11 190.096 321.74 202.076 342.254 202.076Z" fill="#E2E2EC"/>
<path d="M341.075 188.909C354.75 188.909 365.837 180.922 365.837 171.071C365.837 161.219 354.75 153.232 341.075 153.232C327.399 153.232 316.312 161.219 316.312 171.071C316.312 180.922 327.399 188.909 341.075 188.909Z" fill="#535461"/>
<path opacity="0.1" d="M212.545 182.963C221.663 182.963 229.054 177.638 229.054 171.071C229.054 164.503 221.663 159.178 212.545 159.178C203.428 159.178 196.037 164.503 196.037 171.071C196.037 177.638 203.428 182.963 212.545 182.963Z" stroke="black" stroke-width="1.99942" stroke-miterlimit="10"/>
<path opacity="0.1" d="M341.075 182.963C350.192 182.963 357.583 177.638 357.583 171.071C357.583 164.503 350.192 159.178 341.075 159.178C331.957 159.178 324.566 164.503 324.566 171.071C324.566 177.638 331.957 182.963 341.075 182.963Z" stroke="black" stroke-width="1.99942" stroke-miterlimit="10"/>
<path d="M279.168 185.936C285.029 185.936 289.781 182.513 289.781 178.291C289.781 174.069 285.029 170.646 279.168 170.646C273.307 170.646 268.556 174.069 268.556 178.291C268.556 182.513 273.307 185.936 279.168 185.936Z" fill="#E2E2EC"/>
<path d="M262.949 154.442C264.229 154.442 265.266 153.695 265.266 152.773C265.266 151.851 264.229 151.104 262.949 151.104C261.669 151.104 260.632 151.851 260.632 152.773C260.632 153.695 261.669 154.442 262.949 154.442Z" fill="#E2E2EC"/>
<path d="M271.628 154.442C272.907 154.442 273.945 153.695 273.945 152.773C273.945 151.851 272.907 151.104 271.628 151.104C270.348 151.104 269.31 151.851 269.31 152.773C269.31 153.695 270.348 154.442 271.628 154.442Z" fill="#E2E2EC"/>
<path d="M270.472 162.364C271.752 162.364 272.789 161.616 272.789 160.694C272.789 159.773 271.752 159.025 270.472 159.025C269.192 159.025 268.155 159.773 268.155 160.694C268.155 161.616 269.192 162.364 270.472 162.364Z" fill="#E2E2EC"/>
<path d="M278.579 162.576C279.881 162.576 280.937 161.815 280.937 160.877C280.937 159.939 279.881 159.178 278.579 159.178C277.276 159.178 276.22 159.939 276.22 160.877C276.22 161.815 277.276 162.576 278.579 162.576Z" fill="#E2E2EC"/>
<path d="M286.674 162.364C287.953 162.364 288.991 161.616 288.991 160.694C288.991 159.773 287.953 159.025 286.674 159.025C285.394 159.025 284.357 159.773 284.357 160.694C284.357 161.616 285.394 162.364 286.674 162.364Z" fill="#E2E2EC"/>
<path d="M266.999 158.613C268.279 158.613 269.316 157.866 269.316 156.944C269.316 156.022 268.279 155.275 266.999 155.275C265.72 155.275 264.682 156.022 264.682 156.944C264.682 157.866 265.72 158.613 266.999 158.613Z" fill="#E2E2EC"/>
<path d="M274.452 158.753C275.754 158.753 276.81 157.993 276.81 157.054C276.81 156.116 275.754 155.356 274.452 155.356C273.149 155.356 272.093 156.116 272.093 157.054C272.093 157.993 273.149 158.753 274.452 158.753Z" fill="#E2E2EC"/>
<path d="M282.116 158.753C283.419 158.753 284.475 157.993 284.475 157.054C284.475 156.116 283.419 155.356 282.116 155.356C280.814 155.356 279.758 156.116 279.758 157.054C279.758 157.993 280.814 158.753 282.116 158.753Z" fill="#E2E2EC"/>
<path d="M290.146 158.613C291.426 158.613 292.463 157.866 292.463 156.944C292.463 156.022 291.426 155.275 290.146 155.275C288.867 155.275 287.829 156.022 287.829 156.944C287.829 157.866 288.867 158.613 290.146 158.613Z" fill="#E2E2EC"/>
<path d="M278.579 154.506C279.881 154.506 280.937 153.746 280.937 152.807C280.937 151.869 279.881 151.108 278.579 151.108C277.276 151.108 276.22 151.869 276.22 152.807C276.22 153.746 277.276 154.506 278.579 154.506Z" fill="#E2E2EC"/>
<path d="M286.833 154.506C288.135 154.506 289.191 153.746 289.191 152.807C289.191 151.869 288.135 151.108 286.833 151.108C285.53 151.108 284.475 151.869 284.475 152.807C284.475 153.746 285.53 154.506 286.833 154.506Z" fill="#E2E2EC"/>
<path d="M293.619 154.442C294.899 154.442 295.936 153.695 295.936 152.773C295.936 151.851 294.899 151.104 293.619 151.104C292.339 151.104 291.302 151.851 291.302 152.773C291.302 153.695 292.339 154.442 293.619 154.442Z" fill="#E2E2EC"/>
<path d="M193.974 96.3187H191.026C188.258 96.3187 186.014 97.9351 186.014 99.9289V108.848C186.014 110.842 188.258 112.458 191.026 112.458H193.974C196.741 112.458 198.985 110.842 198.985 108.848V99.9289C198.985 97.9351 196.741 96.3187 193.974 96.3187Z" fill="#E2E2EC"/>
<path d="M366.132 96.3187H363.184C360.416 96.3187 358.172 97.9351 358.172 99.9289V108.848C358.172 110.842 360.416 112.458 363.184 112.458H366.132C368.9 112.458 371.143 110.842 371.143 108.848V99.9289C371.143 97.9351 368.9 96.3187 366.132 96.3187Z" fill="#E2E2EC"/>
<path d="M412.414 122.652C420.229 122.652 426.564 118.088 426.564 112.458C426.564 106.829 420.229 102.265 412.414 102.265C404.599 102.265 398.264 106.829 398.264 112.458C398.264 118.088 404.599 122.652 412.414 122.652Z" fill="#535461"/>
<path d="M382.345 144.313C390.16 144.313 396.495 139.749 396.495 134.119C396.495 128.49 390.16 123.926 382.345 123.926C374.531 123.926 368.195 128.49 368.195 134.119C368.195 139.749 374.531 144.313 382.345 144.313Z" fill="#535461"/>
<path d="M443.662 143.039C451.477 143.039 457.812 138.475 457.812 132.845C457.812 127.215 451.477 122.652 443.662 122.652C435.847 122.652 429.512 127.215 429.512 132.845C429.512 138.475 435.847 143.039 443.662 143.039Z" fill="#535461"/>
<path d="M414.772 165.549C422.587 165.549 428.922 160.985 428.922 155.356C428.922 149.726 422.587 145.162 414.772 145.162C406.958 145.162 400.622 149.726 400.622 155.356C400.622 160.985 406.958 165.549 414.772 165.549Z" fill="#535461"/>
<path d="M338.864 90.3726H217.704C210.622 90.3726 204.881 94.5085 204.881 99.6103V137.623C204.881 142.725 210.622 146.861 217.704 146.861H338.864C345.946 146.861 351.687 142.725 351.687 137.623V99.6103C351.687 94.5085 345.946 90.3726 338.864 90.3726Z" fill="#E2E2EC"/>
<path d="M403.865 116.706L412.119 106.512L420.963 116.706H403.865Z" stroke="#E2E2EC" stroke-width="1.99942" stroke-miterlimit="10"/>
<path d="M389.715 129.447H374.976V138.791H389.715V129.447Z" stroke="#E2E2EC" stroke-width="1.99942" stroke-miterlimit="10"/>
<path d="M443.662 138.791C448.221 138.791 451.916 136.129 451.916 132.845C451.916 129.561 448.221 126.899 443.662 126.899C439.103 126.899 435.408 129.561 435.408 132.845C435.408 136.129 439.103 138.791 443.662 138.791Z" stroke="#E2E2EC" stroke-width="1.99942" stroke-miterlimit="10"/>
<path d="M407.992 150.577L421.258 160.134" stroke="#E2E2EC" stroke-width="1.99942" stroke-miterlimit="10"/>
<path d="M421.553 150.577L407.992 159.921" stroke="#E2E2EC" stroke-width="1.99942" stroke-miterlimit="10"/>
<path d="M516.829 274.517C516.829 274.517 514.088 280.463 510.886 282.094C507.685 283.725 510.886 287.365 519.14 285.717C527.395 284.069 528.285 283.742 531.94 278.802C535.596 273.863 535.142 272.546 535.142 272.546C535.142 272.546 532.4 269.913 531.015 270.24C529.629 270.567 516.829 274.517 516.829 274.517Z" fill="#603556"/>
<path d="M499.914 126.636C499.914 126.636 462.882 141.454 471.567 137.173C477.404 134.298 477.05 126.665 476.189 121.964C475.918 120.498 475.6 119.318 475.405 118.655C475.293 118.281 475.222 118.073 475.222 118.073C475.222 118.073 493.181 110.309 492.173 114.977C492.173 115.019 492.173 115.062 492.143 115.104C492.057 115.416 492.011 115.733 492.008 116.052C491.884 120.851 499.914 126.636 499.914 126.636Z" fill="#C87486"/>
<path d="M459.675 141.127C459.675 141.127 456.474 144.75 450.991 141.127C445.507 137.504 428.132 126.636 428.132 126.636C428.132 126.636 420.362 112.802 414.867 115.44C409.372 118.077 421.27 130.921 421.27 130.921L447.329 151.011C447.329 151.011 448.243 155.292 457.847 152.986C467.452 150.679 474.309 148.704 474.309 148.704L459.675 141.127Z" fill="#C87486"/>
<path d="M534.204 271.552L515.927 276.165L515.155 276.326L515.473 275.175C518.215 265.296 501.323 242.569 498.098 240.921C494.873 239.273 492.143 229.712 492.143 229.712C492.143 229.712 486.153 207.975 485.239 203.379C485.009 202.228 484.172 201.311 483.158 200.045C481.629 198.127 480.44 196.078 479.621 193.946C477.61 188.85 472.923 179.803 474.645 174.685C474.992 173.644 473.572 176.303 474.055 175.288L474.332 174.727L511.346 171.1C511.96 171.637 512.535 172.197 513.068 172.778C515.868 175.772 515.685 175.772 516.275 181.464C516.02 184.897 515.348 188.308 514.265 191.657C509.283 207.639 520.52 229.033 520.52 229.033C520.52 229.033 529.664 244.183 527.837 250.439C526.009 256.695 534.204 271.552 534.204 271.552Z" fill="#A4EBF3"/>
<path opacity="0.1" d="M513.068 172.774C507.59 177.722 472.504 181.565 472.941 179.994C473.072 179.452 473.016 178.894 472.776 178.372C473.124 177.328 473.545 176.297 474.037 175.284L474.314 174.723L511.346 171.1C511.96 171.636 512.535 172.195 513.068 172.774Z" fill="black"/>
<path d="M497.173 119.708C497.173 119.708 482.079 123.013 477.952 130.59C473.825 138.167 481.083 138.579 481.083 138.579C481.083 138.579 468.112 163.213 471.549 176.04C471.549 176.04 473.377 177.688 472.923 179.331C472.469 180.975 510.869 176.698 513.604 171.427C516.34 166.156 500.804 156.609 504.92 147.715C509.035 138.821 497.173 119.708 497.173 119.708Z" fill="#DFE5EE"/>
<path opacity="0.1" d="M492.144 115.767C492.118 115.866 492.072 115.962 492.008 116.051C491.383 116.901 489.396 115.971 490.086 117.245C487.433 119.165 486.595 123.008 482.545 123.008C480.342 123.013 478.167 122.657 476.183 121.968C475.912 120.503 475.594 119.322 475.399 118.659C477.168 117.903 491.318 112 492.167 114.981C492.233 115.241 492.225 115.509 492.144 115.767Z" fill="black"/>
<path d="M482.539 122.354C490.618 122.354 497.167 117.637 497.167 111.817C497.167 105.997 490.618 101.28 482.539 101.28C474.461 101.28 467.912 105.997 467.912 111.817C467.912 117.637 474.461 122.354 482.539 122.354Z" fill="#C87486"/>
<path opacity="0.1" d="M497.173 145.409L471.573 153.971C471.573 153.971 454.198 144.423 456.939 141.794C459.681 139.165 481.171 131.601 481.171 131.601C481.171 131.601 503.116 134.871 497.173 145.409Z" fill="black"/>
<path d="M497.173 144.767L471.573 153.33C471.573 153.33 454.198 143.778 456.945 141.144C459.693 138.511 481.177 130.951 481.177 130.951C481.177 130.951 503.116 134.213 497.173 144.767Z" fill="#DFE5EE"/>
<path opacity="0.1" d="M478.318 107.302C476.083 107.141 473.772 106.962 471.832 106.151C470.706 105.684 469.674 104.911 469.639 103.972C469.598 102.868 470.889 102.006 472.074 101.305C472.843 100.793 473.731 100.384 474.698 100.095C475.965 99.776 477.351 99.8907 478.689 99.81C482.628 99.5721 486.153 97.6439 490.109 97.6609C493.016 97.6609 495.687 98.7312 498.216 99.7633C500.238 100.587 502.485 101.632 502.821 103.288C502.843 103.823 502.904 104.356 503.004 104.885C503.422 106.066 505.185 106.754 505.816 107.884C506.506 109.12 505.633 110.551 504.36 111.515C503.086 112.48 501.412 113.142 500.073 114.043C498.831 114.872 497.847 115.881 497.184 117.004C496.522 118.127 496.196 119.338 496.229 120.558C496.259 120.719 496.224 120.882 496.129 121.029C496.028 121.117 495.902 121.189 495.76 121.241C495.618 121.292 495.462 121.321 495.304 121.327C493.847 121.522 492.049 121.628 491.176 120.762C490.304 119.895 490.994 118.451 489.997 117.598C488.73 116.497 486.065 117.372 484.349 116.65C483.771 116.38 483.319 115.991 483.052 115.533C481.637 113.338 483.258 111.613 483.848 109.515C484.538 107.064 480.717 107.476 478.318 107.302Z" fill="black"/>
<path d="M478.778 106.967C476.543 106.805 474.232 106.627 472.292 105.816C471.166 105.348 470.134 104.575 470.099 103.637C470.058 102.532 471.349 101.67 472.534 100.969C473.303 100.458 474.191 100.048 475.158 99.759C476.425 99.4404 477.811 99.5551 479.149 99.4744C483.087 99.2366 486.613 97.3083 490.569 97.3253C493.476 97.3253 496.147 98.3956 498.676 99.4277C500.698 100.252 502.945 101.296 503.281 102.953C503.303 103.487 503.364 104.02 503.463 104.55C503.882 105.731 505.645 106.419 506.276 107.548C506.965 108.784 506.093 110.216 504.819 111.18C503.546 112.144 501.872 112.807 500.533 113.707C499.287 114.538 498.3 115.55 497.636 116.676C496.973 117.802 496.648 119.016 496.683 120.239C496.713 120.4 496.678 120.564 496.583 120.711C496.482 120.799 496.356 120.871 496.214 120.922C496.072 120.973 495.916 121.002 495.758 121.008C494.301 121.203 492.503 121.31 491.63 120.443C490.758 119.577 491.448 118.133 490.451 117.279C489.184 116.179 486.519 117.054 484.803 116.332C484.225 116.062 483.773 115.673 483.506 115.215C482.079 113.015 483.706 111.278 484.296 109.158C484.992 106.733 481.171 107.149 478.778 106.967Z" fill="#603456"/>
</g>
<defs>
<linearGradient id="paint0_linear" x1="474.285" y1="288.282" x2="474.285" y2="95.1848" gradientUnits="userSpaceOnUse">
<stop stop-color="#808080" stop-opacity="0.25"/>
<stop offset="0.54" stop-color="#808080" stop-opacity="0.12"/>
<stop offset="1" stop-color="#808080" stop-opacity="0.1"/>
</linearGradient>
<linearGradient id="paint1_linear" x1="254663" y1="145824" x2="254663" y2="45694.5" gradientUnits="userSpaceOnUse">
<stop stop-color="#808080" stop-opacity="0.25"/>
<stop offset="0.54" stop-color="#808080" stop-opacity="0.12"/>
<stop offset="1" stop-color="#808080" stop-opacity="0.1"/>
</linearGradient>
<clipPath id="clip0">
<rect width="575.834" height="356.897" fill="white" transform="translate(0.189445 0.721436)"/>
</clipPath>
</defs>
</svg>
